Patient4_TMGait_0pt2_03_left_20_EMG.mot
version=1
nRows=30
nColumns=33
inDegrees=no
endheader
time	1LAddLong	2LGlutMax	3LGlutMed	4LIliopsoas	5LSemiMemb	6LBicFemLong	7LRecFem	8LVastMed	9LVastLat	10LGasMed	11LTibAnt	12lTibPost	13LPeroneusLong	14LSol	15LExtDigLong	16LFlexDigLong	17RAddLong	18RGlutMax	19RGlutMed	20RIliopsoas	21RSemiMemb	22RBicFemLong	23RRecFem	24RVastMed	25RVastLat	26RGasMed	27RTibAnt	28RTibPost	29RPeroneusLong	30RSol	31RExtDigLong	32RFlexDigLong
42.605	-0.00824	0.081787	0.073242	-0.006561	-0.035858	0.096588	0.050507	0.016785	-0.012054	0.015106	0.034027	0.007782	0.057526	-0.091248	-0.15472	-0.011444	-0.002594	0.056152	0.051727	-0.14114	-0.010376	-0.03418	0.085754	-0.027771	-0.00824	0.015564	0.10803	-0.020752	0.050964	-0.18784	-0.006714	0.001373
42.606	-0.00351	0.12131	-0.062408	0.017395	0.005798	0.079956	0.068207	-0.002289	-0.017548	0.009766	-0.000153	0.010681	0.060577	-0.064697	-0.12177	-0.0177	0.000305	0.019073	-0.090027	-0.068512	-0.037231	-0.015259	0.09079	-0.028992	-0.016174	0.034027	0.02243	-0.052948	-0.21942	-0.33402	-0.006714	0.004578
42.607	0.015717	0.14221	-0.112	0.014954	0.046539	0.001831	0.068207	-0.005798	-0.022278	0.077972	0.005341	0.006714	-0.012512	-0.055695	-0.057678	-0.016327	0.010681	0.027313	-0.16373	-0.031433	-0.027161	-0.049896	0.022583	-0.052338	-0.001984	0.034332	-0.056458	-0.052185	-0.44647	-0.36118	-0.005646	0.004883
42.608	0.017242	0.15625	-0.066681	-0.002136	0.11124	0.041199	0.076294	0	-0.038757	0.13672	-0.005188	0.014954	-0.20096	-0.037994	-0.038757	-0.007477	-0.001831	0.012665	-0.11169	0.070648	0.018616	-0.063934	-0.011749	-0.040588	-0.023499	0.035858	-0.002441	-0.032349	0.022125	-0.28519	-0.002899	0.003204
42.609	0.021515	0.15366	0.020599	0.000458	0.095978	0.1471	0.071564	-0.00412	-0.012207	0.15549	-0.042114	0.006561	0.054169	-0.042725	0.011749	-0.000153	0.002136	0.025024	0.11612	0.1683	0.06958	-0.066071	-0.004425	-0.043182	0.037231	0.002441	0.028839	0.036469	-0.32761	-0.31693	-0.005493	-0.00885
42.61	0.006256	0.15488	0.12085	0.014954	0.034943	0.22156	0.063019	-0.005493	0.009308	0.11917	-0.021362	0.013123	0.12878	-0.008545	0.03891	-0.000916	0.004578	0.010681	0.20538	0.29205	0.045471	-0.083771	0.02533	-0.058746	0.028381	-0.027771	-0.036316	-0.27176	-1.0544	-0.06485	-0.002289	-0.010529
42.611	-0.015411	0.1152	0.25879	0.005188	0.031281	0.20065	0.098724	0.007782	-0.009155	-0.024414	-0.031433	0.00885	-0.091553	-0.062256	-0.002594	0.006714	0.014343	0.034485	-0.097351	0.22522	0.018921	-0.081024	0.053406	-0.044556	0.012512	-0.036469	-0.060577	0.18463	-0.27603	-0.011292	-0.005188	-0.012512
42.612	-0.015106	0.11322	0.044708	0.000916	-0.042725	0.22247	0.067902	0.01236	-0.011749	-0.24506	-0.019226	0.011597	0.22919	-0.062256	0.050354	-0.001221	0.02121	0.036774	-0.2388	0.14938	0.011597	-0.098267	0.031738	-0.044403	0.019226	-0.066833	-0.062866	0.027618	1.0379	-0.096436	-0.002441	-0.01236
42.613	-0.017548	0.11505	-0.018768	0.006409	-0.078125	0.16434	0.049286	0.011139	0.007477	-0.11093	-0.023041	0.008087	0.14587	-0.074005	0.003204	0.004425	0.025635	0.036926	-0.12787	0.076447	0.018463	-0.091248	0.091705	-0.057526	0.008087	-0.057526	-0.088654	-0.08606	0.40695	-0.18097	-0.004272	-0.008087
42.614	-0.009918	0.13458	-0.011749	-0.005493	-0.033569	0.011902	0.032654	0.005951	0.028076	0.17807	-0.006409	0.002747	0.31693	-0.11383	-0.016937	0.012817	0.010223	0.038452	-0.070038	0.018005	0.017395	-0.10666	0.15137	-0.024872	0.020447	-0.020599	-0.078735	0.04364	0.37521	-0.072479	-0.002899	-0.012665
42.615	0.010376	0.15701	0.068512	-0.00885	0.023956	-0.20844	0.003357	0.005493	0.033417	0.28412	0.000458	0.013733	0.10635	-0.04715	0.053864	0.007324	0.01709	0.069275	-0.11551	0.002747	0.033112	-0.066071	0.072784	-0.019531	0.038147	-0.007019	-0.047455	0.12146	0.40237	-0.23926	-0.001984	-0.005798
42.616	0.007935	0.14099	0.073242	-0.001068	-0.00946	-0.3212	-0.000916	-0.003357	0.039978	0.345	0.014038	0.011749	0.1413	0.010376	0.063629	0.006561	0.024414	0.033722	-0.1059	-0.049438	0.058899	-0.044708	0.074158	-0.042572	0.027924	0.001373	-0.049133	0.056458	0.063171	0.75958	-0.010529	0.002289
42.617	0.016174	0.14008	0.049133	0.015564	-0.011139	-0.13825	0.02243	0.002747	0.03891	0.41306	0.009766	0.011139	0.4303	0.049744	0.011292	-0.003357	0.00351	0.020752	-0.24155	-0.031281	0.040741	0.008087	0.060272	-0.042419	-0.002594	-0.032043	-0.05661	0.072479	0.080109	1.12	-0.004578	-0.010681
42.618	0.010223	0.15411	0.050964	0.010681	0.032501	-0.1326	0.037537	0.004425	0.038757	0.32257	-0.011139	0.014801	0.22461	0.11917	-0.018616	0.02182	0.003662	-0.014343	-0.26077	-0.071716	-0.087891	0.041351	0.043182	-0.007782	-0.026855	-0.027771	-0.036621	0.007477	0.14725	0.61295	-0.003052	-0.000763
42.619	-0.002594	0.14526	0.027924	0.027618	0.030823	0.023041	0.062256	0.004578	0.030975	0.19669	-0.00946	0.005341	-0.36377	0.15503	0.014496	0.007477	0.00412	0.022888	-0.2681	-0.13596	-0.072327	0.016937	0.026093	-0.01236	0.018311	-0.020142	-0.033569	0.024109	0.30441	0.28641	-0.004425	0.010681
42.62	-0.011139	0.16296	0.036926	0.015869	-0.014648	-0.000916	0.061646	0.007629	0.01297	0.10635	-0.015869	-0.001068	-0.17792	0.13046	-0.096283	0.006104	0.00946	0.009308	-0.26764	-0.12909	0.029755	0.004272	0.005646	-0.015717	0.025787	-0.012207	-0.035706	0.001831	0.3006	0.07019	-0.00412	0.006409
42.621	-0.011292	0.14191	0.0354	0.007629	-0.006561	-0.067596	0.059509	0.006561	0.010529	0.056	-0.00885	0.002441	0.037537	-0.034637	-0.040588	0.001221	0.019684	0.007629	-0.2243	0.021362	-0.000458	0.045166	0.015259	-0.029755	0.015564	0.001678	-0.04425	0.019531	0.19073	-0.040131	0.001526	0.008087
42.622	0.000763	0.11093	0.01358	0.020599	0.059814	-0.12604	0.056915	0.00885	0.009155	-0.69061	-0.023041	0.001373	0.61157	-0.12787	-0.028687	0.002899	-0.006409	0.00885	-0.18799	0.18936	-0.088196	0.091095	0.023804	0.007935	0.023651	0.000153	-0.011597	-0.005341	0.089417	0.1741	0.000305	0.00885
42.623	0.013275	0.083008	0.000916	0.019989	0.066223	-0.046234	0.049896	0.008392	0.015259	-0.36255	-0.000153	0.005951	0.32669	-0.1355	0.0354	-0.002594	-0.004272	-0.025177	-0.066833	0.15762	-0.085754	0.051422	0.080109	-0.029907	0.003357	0.000916	0.001068	-0.010986	-0.021057	-0.044403	-0.003967	0.014343
42.624	0.008087	0.11215	-0.044098	0.029449	0.012207	0.0177	0.002136	0.008392	0.00824	-0.05661	0.032196	0.005493	-0.23804	-0.010071	0.034943	0.005188	-0.00412	0.008545	0.34439	0.056458	-0.041046	0.056458	0.098267	-0.055084	0.005493	0.015564	-0.018768	-0.014496	-0.14725	-0.16235	-0.00412	0.006256
42.625	0.009766	0.11429	-0.030212	-0.001678	-0.011749	-0.023193	0.015106	0.012512	0.000916	-0.019379	0.019531	0.007172	-0.78659	0.041656	0.088501	0.007019	0.000305	0.05188	0.522	0.024261	-0.16724	0.074005	0.045166	-0.055389	0.003967	0.028076	0.00885	-0.019836	-0.13886	-0.34027	-0.003357	0.012512
42.626	0.005188	0.10193	-0.025482	-0.007324	-0.006256	0.084076	0.013123	0.015564	-0.019989	0.033875	-0.009918	0.011292	-0.032654	-0.061646	-0.034485	0.003204	-0.012512	-0.014954	0.26001	0.002594	0.13184	0.028687	0.067749	-0.020294	0.034637	0.040588	0.018921	-0.029602	-0.13534	-0.54764	-0.00412	0.016479
42.627	0.003815	0.076904	-0.018158	-0.020447	0.005341	0.18051	0.010071	0.010376	-0.012512	0.10132	-0.033417	0.001831	0.31097	0.12299	-0.00824	0.003967	-0.000458	0.010986	-0.12283	-0.0354	0.14908	0.045624	0.026093	-0.032196	0.03479	0.052185	0.055695	-0.037689	-0.5777	-0.69931	-0.001373	0.016937
42.628	-0.00351	0.08728	-0.037537	-0.012207	0.075226	0.2356	0.003967	0.014343	-0.0177	0.019531	-0.01358	0.00351	-0.11475	0.14282	-0.10834	0.014191	-0.002136	0.043182	-0.028687	-0.083008	0.067291	0.023804	0.084991	0.007019	0.020752	0.058746	0.063324	-0.031738	-0.63309	-0.8815	-0.00473	0.00824
42.629	-0.002594	0.12421	-0.05722	-0.009613	0.034485	0.13992	0.012665	0.005798	0.002289	-0.048065	-0.00824	0.005951	0.15564	0.18784	-0.03418	0.015717	-0.005493	0.043793	-0.16205	-0.057831	0.048218	0.087128	0.10147	0.002136	0.016479	0.056	-0.012512	-0.002136	-0.4837	-1.263	-0.001221	0.010681
42.63	0.000916	0.1564	-0.12604	0.00473	-0.003052	-0.003204	0.015564	0.013123	-0.002747	0.033112	-0.016937	0.004578	-0.10284	-0.064545	-0.043793	0.013885	0.013123	0.061035	-0.19821	0.010986	0.009308	0.10574	0.09903	-0.014191	-0.001068	0.028229	0.020447	0.043182	-0.22247	-1.2616	-0.003204	0.002136
42.631	0.007935	0.1535	-0.079193	0.00473	-0.02533	-0.2269	0.042114	0.001678	-0.033264	0.024109	-0.021973	0.005188	0.29785	-0.18295	-0.033264	0.010681	0.002136	0.020447	-0.12177	-0.06073	-0.058289	0.11093	0.13504	-0.01236	0.006104	0.014191	0.05188	-0.08667	-0.06546	-1.0449	-0.002747	-0.007782
42.632	-0.006256	0.18249	0.069885	0.003204	-0.027771	-0.31723	0.028992	0.004578	-0.007935	-0.097656	0.003662	0.004578	-0.071106	-0.22247	-0.037994	-0.002594	0.007019	0.007019	-0.020752	-0.12482	-0.014191	0.092621	0.14786	-0.082397	0.001373	0.000763	0.014343	-0.31738	0.32761	-0.27344	-0.006104	-0.001526
42.633	-0.017548	0.15793	0.090942	0.00946	-0.036926	-0.34409	0.0354	0.013428	0.00351	0.00351	0.011139	0.007935	-0.008392	-0.327	0.042877	-0.005951	0.016327	0.017242	-0.020599	-0.16281	0.002747	0.09491	0.096893	-0.070496	-0.007172	-0.012512	-0.000153	-0.26443	0.1831	-0.14297	-0.004272	-0.005493
42.634	-0.02655	0.13565	0.096893	0.007172	-0.081177	-0.33524	0.052948	-0.010681	0.018616	0.67368	0.022583	0.009613	0.44998	-0.15167	0.27161	-0.000458	0.003052	0.051575	-0.029755	-0.16907	-0.039215	0.094299	-0.024414	-0.056763	0.047302	-0.039673	0.040131	-0.21591	-0.019379	-0.67642	-0.002899	-0.008087
